<svg width="100" height="78" viewBox="0 0 100 78" fill="none" xmlns="http://www.w3.org/2000/svg">
<rect y="35.3359" width="21.2005" height="7.06683" rx="0.84802" fill="#2B8FFF"/>
<rect x="28.2695" y="35.3359" width="21.2005" height="7.06683" rx="0.84802" fill="#2B8FFF"/>
<rect x="97.5234" width="46.6411" height="7.06683" rx="0.84802" transform="rotate(90 97.5234 0)" fill="#2B8FFF"/>
<path d="M71.4746 0C79.7271 0.000172992 86.4169 6.68988 86.417 14.9424C86.417 23.1949 79.7271 29.8856 71.4746 29.8857C63.2219 29.8857 56.5312 23.195 56.5312 14.9424C56.5313 6.68977 63.222 0 71.4746 0ZM71.3662 6.94434C66.8919 6.94434 63.2648 10.5716 63.2646 15.0459C63.2646 19.5203 66.8918 23.1475 71.3662 23.1475C75.8405 23.1474 79.4678 19.5202 79.4678 15.0459C79.4677 10.5716 75.8405 6.9444 71.3662 6.94434Z" fill="#2B8FFF"/>
<path d="M99.5782 72.7835C99.8113 73.1896 99.6711 73.7079 99.2649 73.9411L93.9947 76.9668C93.5885 77.2 93.0702 77.0598 92.837 76.6536L79.1296 52.7741C78.9076 52.3875 78.3464 52.3978 78.1389 52.7923L65.6255 76.5819C65.4074 76.9964 64.8946 77.1557 64.4801 76.9376L59.102 74.1083C58.6875 73.8903 58.5283 73.3775 58.7463 72.963L77.6028 37.1152C77.9141 36.5234 78.7559 36.5079 79.0888 37.0878L99.5782 72.7835Z" fill="#2B8FFF"/>
<path d="M48.626 0.00390625C49.094 0.00415046 49.4735 0.383481 49.4736 0.851562V6.22266C49.4736 6.66909 49.1284 7.03422 48.6904 7.06738H35.9053C35.5933 7.06763 35.3409 7.32083 35.3408 7.63281V10.7422C35.3408 11.0543 35.5933 11.3074 35.9053 11.3076H36.7559V11.3115H48.626C49.0939 11.3118 49.4733 11.6913 49.4736 12.1592V17.5303C49.4736 17.981 49.1217 18.349 48.6777 18.376H35.9053C35.5933 18.3762 35.3408 18.6293 35.3408 18.9414V22.0508C35.341 22.3627 35.5934 22.616 35.9053 22.6162H48.626C49.0939 22.6165 49.4733 22.9959 49.4736 23.4639V28.835C49.4736 29.3031 49.0941 29.6833 48.626 29.6836H29.1211C28.6529 29.6835 28.2735 29.3032 28.2734 28.835V23.4639C28.2735 23.4465 28.2743 23.4292 28.2754 23.4121V17.582C28.2744 17.565 28.2734 17.5475 28.2734 17.5303V12.1592C28.2735 12.1418 28.2743 12.1246 28.2754 12.1074V6.27441C28.2744 6.25741 28.2734 6.23992 28.2734 6.22266V0.851562C28.2736 0.383414 28.6529 0.00404265 29.1211 0.00390625H48.626Z" fill="#2B8FFF"/>
<path d="M20.3525 0.00390625C20.8208 0.00390625 21.2001 0.38333 21.2002 0.851562V6.22266C21.2001 6.66897 20.8557 7.03404 20.418 7.06738H7.63379C7.32162 7.06738 7.06847 7.32067 7.06836 7.63281V10.7422C7.06836 11.0544 7.32156 11.3076 7.63379 11.3076H8.4834V11.3115H20.3525C20.8207 11.3115 21.1999 11.6911 21.2002 12.1592V17.5303C21.2001 17.9812 20.8485 18.3493 20.4043 18.376H7.63379C7.32156 18.376 7.06836 18.6292 7.06836 18.9414V22.0508C7.06853 22.3629 7.32166 22.6162 7.63379 22.6162H20.3525C20.8207 22.6162 21.1999 22.9958 21.2002 23.4639V28.835C21.2001 29.3033 20.8208 29.6836 20.3525 29.6836H0.848633C0.380439 29.6835 6.13458e-05 29.3032 0 28.835V23.4639C2.45033e-05 23.4465 0.00188149 23.4292 0.00292969 23.4121V17.582C0.00191034 17.565 2.2611e-06 17.5475 0 17.5303V12.1592C2.47406e-05 12.1418 0.00188156 12.1246 0.00292969 12.1074V6.27441C0.00191055 6.25741 2.93e-06 6.23992 0 6.22266V0.851562C0.000136143 0.383414 0.380485 0.00404265 0.848633 0.00390625H20.3525Z" fill="#2B8FFF"/>
<path d="M21.2002 76.8854C21.2002 77.3537 20.8205 77.7334 20.3522 77.7334H0.848021C0.379673 77.7334 0 77.3537 0 76.8854V48.9008C0 48.4324 0.379671 48.0527 0.84802 48.0527H20.3522C20.8205 48.0527 21.2002 48.4324 21.2002 48.9008V76.8854ZM7.63281 55.1172C7.32067 55.1172 7.06753 55.3705 7.06738 55.6826V70.0996C7.06759 70.4117 7.32071 70.665 7.63281 70.665H13.5684C13.8805 70.665 14.1336 70.4117 14.1338 70.0996V55.6826C14.1336 55.3707 13.8813 55.1174 13.5693 55.1172H7.63281Z" fill="#2B8FFF"/>
<path d="M49.4697 76.8854C49.4697 77.3537 49.0901 77.7334 48.6217 77.7334H29.1176C28.6492 77.7334 28.2695 77.3537 28.2695 76.8854V48.9008C28.2695 48.4324 28.6492 48.0527 29.1176 48.0527H48.6217C49.0901 48.0527 49.4697 48.4324 49.4697 48.9008V76.8854ZM35.9023 55.1172C35.5902 55.1172 35.3371 55.3705 35.3369 55.6826V70.0996C35.3371 70.4117 35.5902 70.665 35.9023 70.665H41.8379C42.15 70.665 42.4031 70.4117 42.4033 70.0996V55.6826C42.4032 55.3705 42.15 55.1172 41.8379 55.1172H35.9023Z" fill="#2B8FFF"/>
</svg>
